<mxfile host="app.diagrams.net" modified="2021-05-04T14:26:27.334Z" agent="5.0 (Windows NT 10.0; Win64; x64) AppleWebKit/537.36 (KHTML, like Gecko) Chrome/90.0.4430.93 Safari/537.36 Edg/90.0.818.51" etag="bKOZv3rbciRgLNaRTStD" version="14.6.6" type="github">
  <diagram id="WcBVSIOMvh6vSNzSJEVT" name="Page-1">
    <mxGraphModel dx="1652" dy="967" grid="0" gridSize="10" guides="1" tooltips="1" connect="1" arrows="1" fold="1" page="1" pageScale="1" pageWidth="827" pageHeight="1169" background="none" math="0" shadow="0">
      <root>
        <mxCell id="0" />
        <mxCell id="1" parent="0" />
        <mxCell id="e7Inx5ycO4xr26UV_l0J-4" value="" style="edgeStyle=orthogonalEdgeStyle;rounded=0;orthogonalLoop=1;jettySize=auto;html=1;" edge="1" parent="1" source="e7Inx5ycO4xr26UV_l0J-1" target="e7Inx5ycO4xr26UV_l0J-2">
          <mxGeometry relative="1" as="geometry" />
        </mxCell>
        <mxCell id="e7Inx5ycO4xr26UV_l0J-1" value="START" style="ellipse;whiteSpace=wrap;html=1;" vertex="1" parent="1">
          <mxGeometry x="330" y="10" width="140" height="50" as="geometry" />
        </mxCell>
        <mxCell id="e7Inx5ycO4xr26UV_l0J-5" value="" style="edgeStyle=orthogonalEdgeStyle;rounded=0;orthogonalLoop=1;jettySize=auto;html=1;" edge="1" parent="1" source="e7Inx5ycO4xr26UV_l0J-2" target="e7Inx5ycO4xr26UV_l0J-3">
          <mxGeometry relative="1" as="geometry" />
        </mxCell>
        <mxCell id="e7Inx5ycO4xr26UV_l0J-2" value="&lt;font style=&quot;font-size: 13px&quot;&gt;STUDENT = 30&lt;br&gt;student_number[STUDENT]&lt;br&gt;name[STUDENT]&lt;br&gt;sex[STUDENT]&lt;br&gt;phone[STUDENT]&lt;br&gt;key&lt;br&gt;&lt;/font&gt;" style="shape=hexagon;perimeter=hexagonPerimeter2;whiteSpace=wrap;html=1;fixedSize=1;" vertex="1" parent="1">
          <mxGeometry x="310" y="80" width="180" height="100" as="geometry" />
        </mxCell>
        <mxCell id="e7Inx5ycO4xr26UV_l0J-9" value="" style="edgeStyle=orthogonalEdgeStyle;rounded=0;orthogonalLoop=1;jettySize=auto;html=1;" edge="1" parent="1" source="e7Inx5ycO4xr26UV_l0J-3">
          <mxGeometry relative="1" as="geometry">
            <mxPoint x="400" y="300" as="targetPoint" />
          </mxGeometry>
        </mxCell>
        <mxCell id="e7Inx5ycO4xr26UV_l0J-3" value="student_name&lt;br&gt;name&lt;br&gt;sex&lt;br&gt;phone" style="shape=parallelogram;perimeter=parallelogramPerimeter;whiteSpace=wrap;html=1;fixedSize=1;" vertex="1" parent="1">
          <mxGeometry x="310" y="200" width="180" height="70" as="geometry" />
        </mxCell>
        <mxCell id="e7Inx5ycO4xr26UV_l0J-288" value="" style="edgeStyle=orthogonalEdgeStyle;rounded=0;orthogonalLoop=1;jettySize=auto;html=1;" edge="1" parent="1" source="e7Inx5ycO4xr26UV_l0J-30" target="e7Inx5ycO4xr26UV_l0J-287">
          <mxGeometry relative="1" as="geometry" />
        </mxCell>
        <mxCell id="e7Inx5ycO4xr26UV_l0J-318" value="" style="edgeStyle=orthogonalEdgeStyle;rounded=0;orthogonalLoop=1;jettySize=auto;html=1;" edge="1" parent="1" source="e7Inx5ycO4xr26UV_l0J-30" target="e7Inx5ycO4xr26UV_l0J-317">
          <mxGeometry relative="1" as="geometry" />
        </mxCell>
        <mxCell id="e7Inx5ycO4xr26UV_l0J-30" value="&lt;font style=&quot;font-size: 15px&quot;&gt;x&amp;lt;STUDENT&lt;/font&gt;" style="rhombus;whiteSpace=wrap;html=1;fillColor=none;" vertex="1" parent="1">
          <mxGeometry x="310" y="301" width="180" height="79" as="geometry" />
        </mxCell>
        <mxCell id="e7Inx5ycO4xr26UV_l0J-292" value="" style="edgeStyle=orthogonalEdgeStyle;rounded=0;orthogonalLoop=1;jettySize=auto;html=1;" edge="1" parent="1" source="e7Inx5ycO4xr26UV_l0J-287" target="e7Inx5ycO4xr26UV_l0J-290">
          <mxGeometry relative="1" as="geometry" />
        </mxCell>
        <mxCell id="e7Inx5ycO4xr26UV_l0J-307" value="" style="edgeStyle=orthogonalEdgeStyle;rounded=0;orthogonalLoop=1;jettySize=auto;html=1;" edge="1" parent="1" source="e7Inx5ycO4xr26UV_l0J-287" target="e7Inx5ycO4xr26UV_l0J-306">
          <mxGeometry relative="1" as="geometry" />
        </mxCell>
        <mxCell id="e7Inx5ycO4xr26UV_l0J-287" value="&lt;font style=&quot;font-size: 15px&quot;&gt;y&amp;lt;STUDENT-x&lt;/font&gt;" style="rhombus;whiteSpace=wrap;html=1;strokeColor=#000000;fillColor=none;gradientColor=none;" vertex="1" parent="1">
          <mxGeometry x="520" y="300" width="170" height="80" as="geometry" />
        </mxCell>
        <mxCell id="e7Inx5ycO4xr26UV_l0J-293" value="" style="edgeStyle=orthogonalEdgeStyle;rounded=0;orthogonalLoop=1;jettySize=auto;html=1;" edge="1" parent="1" source="e7Inx5ycO4xr26UV_l0J-290" target="e7Inx5ycO4xr26UV_l0J-291">
          <mxGeometry relative="1" as="geometry" />
        </mxCell>
        <mxCell id="e7Inx5ycO4xr26UV_l0J-304" style="edgeStyle=orthogonalEdgeStyle;rounded=0;orthogonalLoop=1;jettySize=auto;html=1;entryX=0.5;entryY=1;entryDx=0;entryDy=0;" edge="1" parent="1" source="e7Inx5ycO4xr26UV_l0J-290" target="e7Inx5ycO4xr26UV_l0J-300">
          <mxGeometry relative="1" as="geometry" />
        </mxCell>
        <mxCell id="e7Inx5ycO4xr26UV_l0J-290" value="&lt;font style=&quot;font-size: 12px&quot;&gt;student_number[y]&amp;gt;&lt;br&gt;student_number[y+1]&lt;br&gt;&lt;/font&gt;" style="rhombus;whiteSpace=wrap;html=1;strokeColor=#000000;fillColor=none;gradientColor=none;" vertex="1" parent="1">
          <mxGeometry x="520" y="400" width="170" height="80" as="geometry" />
        </mxCell>
        <mxCell id="e7Inx5ycO4xr26UV_l0J-291" value="temp = student_number[y]&lt;br&gt;student_number[y] = student_number[y+1]&lt;br&gt;student_number[y+1] = temp" style="rounded=0;whiteSpace=wrap;html=1;strokeColor=#000000;fillColor=none;gradientColor=none;" vertex="1" parent="1">
          <mxGeometry x="522.5" y="500" width="165" height="60" as="geometry" />
        </mxCell>
        <mxCell id="e7Inx5ycO4xr26UV_l0J-294" value="YES" style="text;html=1;strokeColor=none;fillColor=none;align=center;verticalAlign=middle;whiteSpace=wrap;rounded=0;" vertex="1" parent="1">
          <mxGeometry x="480" y="320" width="40" height="60" as="geometry" />
        </mxCell>
        <mxCell id="e7Inx5ycO4xr26UV_l0J-296" value="&lt;span style=&quot;color: rgb(0, 0, 0); font-family: helvetica; font-size: 12px; font-style: normal; font-weight: 400; letter-spacing: normal; text-align: center; text-indent: 0px; text-transform: none; word-spacing: 0px; background-color: rgb(248, 249, 250); display: inline; float: none;&quot;&gt;YES&lt;/span&gt;" style="text;whiteSpace=wrap;html=1;" vertex="1" parent="1">
          <mxGeometry x="610" y="380" width="50" height="30" as="geometry" />
        </mxCell>
        <mxCell id="e7Inx5ycO4xr26UV_l0J-297" value="&lt;span style=&quot;color: rgb(0, 0, 0); font-family: helvetica; font-size: 12px; font-style: normal; font-weight: 400; letter-spacing: normal; text-align: center; text-indent: 0px; text-transform: none; word-spacing: 0px; background-color: rgb(248, 249, 250); display: inline; float: none;&quot;&gt;YES&lt;/span&gt;" style="text;whiteSpace=wrap;html=1;" vertex="1" parent="1">
          <mxGeometry x="610" y="470" width="50" height="30" as="geometry" />
        </mxCell>
        <mxCell id="e7Inx5ycO4xr26UV_l0J-298" value="NO" style="text;html=1;strokeColor=none;fillColor=none;align=center;verticalAlign=middle;whiteSpace=wrap;rounded=0;" vertex="1" parent="1">
          <mxGeometry x="680" y="420" width="40" height="20" as="geometry" />
        </mxCell>
        <mxCell id="e7Inx5ycO4xr26UV_l0J-312" style="edgeStyle=orthogonalEdgeStyle;rounded=0;orthogonalLoop=1;jettySize=auto;html=1;" edge="1" parent="1" source="e7Inx5ycO4xr26UV_l0J-300">
          <mxGeometry relative="1" as="geometry">
            <mxPoint x="500" y="340" as="targetPoint" />
            <Array as="points">
              <mxPoint x="785" y="280" />
              <mxPoint x="500" y="280" />
            </Array>
          </mxGeometry>
        </mxCell>
        <mxCell id="e7Inx5ycO4xr26UV_l0J-300" value="y++" style="rounded=0;whiteSpace=wrap;html=1;strokeColor=#000000;fillColor=none;gradientColor=none;" vertex="1" parent="1">
          <mxGeometry x="760" y="380" width="50" height="30" as="geometry" />
        </mxCell>
        <mxCell id="e7Inx5ycO4xr26UV_l0J-313" style="edgeStyle=orthogonalEdgeStyle;rounded=0;orthogonalLoop=1;jettySize=auto;html=1;" edge="1" parent="1" source="e7Inx5ycO4xr26UV_l0J-306">
          <mxGeometry relative="1" as="geometry">
            <mxPoint x="400" y="290" as="targetPoint" />
            <Array as="points">
              <mxPoint x="735" y="290" />
            </Array>
          </mxGeometry>
        </mxCell>
        <mxCell id="e7Inx5ycO4xr26UV_l0J-306" value="x++" style="rounded=0;whiteSpace=wrap;html=1;strokeColor=#000000;fillColor=none;gradientColor=none;" vertex="1" parent="1">
          <mxGeometry x="710" y="325.5" width="50" height="30" as="geometry" />
        </mxCell>
        <mxCell id="e7Inx5ycO4xr26UV_l0J-316" value="NO" style="text;html=1;strokeColor=none;fillColor=none;align=center;verticalAlign=middle;whiteSpace=wrap;rounded=0;" vertex="1" parent="1">
          <mxGeometry x="670" y="320" width="40" height="20" as="geometry" />
        </mxCell>
        <mxCell id="e7Inx5ycO4xr26UV_l0J-321" value="" style="edgeStyle=orthogonalEdgeStyle;rounded=0;orthogonalLoop=1;jettySize=auto;html=1;" edge="1" parent="1" source="e7Inx5ycO4xr26UV_l0J-317" target="e7Inx5ycO4xr26UV_l0J-320">
          <mxGeometry relative="1" as="geometry" />
        </mxCell>
        <mxCell id="e7Inx5ycO4xr26UV_l0J-317" value="&lt;font style=&quot;font-size: 17px&quot;&gt;key&lt;/font&gt;" style="shape=parallelogram;perimeter=parallelogramPerimeter;whiteSpace=wrap;html=1;fixedSize=1;strokeColor=#000000;fillColor=none;gradientColor=none;" vertex="1" parent="1">
          <mxGeometry x="340" y="410" width="120" height="50" as="geometry" />
        </mxCell>
        <mxCell id="e7Inx5ycO4xr26UV_l0J-319" value="NO" style="text;html=1;strokeColor=none;fillColor=none;align=center;verticalAlign=middle;whiteSpace=wrap;rounded=0;" vertex="1" parent="1">
          <mxGeometry x="400" y="380" width="40" height="20" as="geometry" />
        </mxCell>
        <mxCell id="e7Inx5ycO4xr26UV_l0J-324" value="" style="edgeStyle=orthogonalEdgeStyle;rounded=0;orthogonalLoop=1;jettySize=auto;html=1;" edge="1" parent="1" source="e7Inx5ycO4xr26UV_l0J-320" target="e7Inx5ycO4xr26UV_l0J-322">
          <mxGeometry relative="1" as="geometry" />
        </mxCell>
        <mxCell id="e7Inx5ycO4xr26UV_l0J-320" value="low = 0&lt;br&gt;high = STUDENT&lt;br&gt;mid = (low+high)/2&amp;nbsp;" style="rounded=0;whiteSpace=wrap;html=1;strokeColor=#000000;fillColor=none;gradientColor=none;" vertex="1" parent="1">
          <mxGeometry x="340" y="490" width="120" height="60" as="geometry" />
        </mxCell>
        <mxCell id="e7Inx5ycO4xr26UV_l0J-326" value="" style="edgeStyle=orthogonalEdgeStyle;rounded=0;orthogonalLoop=1;jettySize=auto;html=1;" edge="1" parent="1" source="e7Inx5ycO4xr26UV_l0J-322" target="e7Inx5ycO4xr26UV_l0J-325">
          <mxGeometry relative="1" as="geometry" />
        </mxCell>
        <mxCell id="e7Inx5ycO4xr26UV_l0J-344" value="" style="edgeStyle=orthogonalEdgeStyle;rounded=0;orthogonalLoop=1;jettySize=auto;html=1;" edge="1" parent="1" source="e7Inx5ycO4xr26UV_l0J-322" target="e7Inx5ycO4xr26UV_l0J-343">
          <mxGeometry relative="1" as="geometry" />
        </mxCell>
        <mxCell id="e7Inx5ycO4xr26UV_l0J-322" value="&lt;font style=&quot;font-size: 17px&quot;&gt;low &amp;lt; high&lt;/font&gt;" style="rhombus;whiteSpace=wrap;html=1;strokeColor=#000000;fillColor=none;gradientColor=none;" vertex="1" parent="1">
          <mxGeometry x="305" y="580" width="190" height="60" as="geometry" />
        </mxCell>
        <mxCell id="e7Inx5ycO4xr26UV_l0J-329" value="" style="edgeStyle=orthogonalEdgeStyle;rounded=0;orthogonalLoop=1;jettySize=auto;html=1;" edge="1" parent="1" source="e7Inx5ycO4xr26UV_l0J-325" target="e7Inx5ycO4xr26UV_l0J-327">
          <mxGeometry relative="1" as="geometry" />
        </mxCell>
        <mxCell id="e7Inx5ycO4xr26UV_l0J-332" value="" style="edgeStyle=orthogonalEdgeStyle;rounded=0;orthogonalLoop=1;jettySize=auto;html=1;" edge="1" parent="1" source="e7Inx5ycO4xr26UV_l0J-325" target="e7Inx5ycO4xr26UV_l0J-331">
          <mxGeometry relative="1" as="geometry" />
        </mxCell>
        <mxCell id="e7Inx5ycO4xr26UV_l0J-325" value="&lt;font style=&quot;font-size: 12px&quot;&gt;key = student_number[mid]&lt;/font&gt;" style="rhombus;whiteSpace=wrap;html=1;strokeColor=#000000;fillColor=none;gradientColor=none;" vertex="1" parent="1">
          <mxGeometry x="305" y="660" width="190" height="60" as="geometry" />
        </mxCell>
        <mxCell id="e7Inx5ycO4xr26UV_l0J-351" style="edgeStyle=orthogonalEdgeStyle;rounded=0;orthogonalLoop=1;jettySize=auto;html=1;" edge="1" parent="1" source="e7Inx5ycO4xr26UV_l0J-327">
          <mxGeometry relative="1" as="geometry">
            <mxPoint x="710" y="610" as="targetPoint" />
          </mxGeometry>
        </mxCell>
        <mxCell id="e7Inx5ycO4xr26UV_l0J-327" value="student_number[mid]&lt;br&gt;name[mid]&lt;br&gt;sex[mid]&lt;br&gt;phone[mid]" style="shape=document;whiteSpace=wrap;html=1;boundedLbl=1;strokeColor=#000000;fillColor=none;gradientColor=none;" vertex="1" parent="1">
          <mxGeometry x="522.5" y="652.5" width="160" height="75" as="geometry" />
        </mxCell>
        <mxCell id="e7Inx5ycO4xr26UV_l0J-328" value="&lt;span style=&quot;color: rgb(0, 0, 0); font-family: helvetica; font-size: 12px; font-style: normal; font-weight: 400; letter-spacing: normal; text-align: center; text-indent: 0px; text-transform: none; word-spacing: 0px; background-color: rgb(248, 249, 250); display: inline; float: none;&quot;&gt;YES&lt;/span&gt;" style="text;whiteSpace=wrap;html=1;" vertex="1" parent="1">
          <mxGeometry x="410" y="640" width="50" height="30" as="geometry" />
        </mxCell>
        <mxCell id="e7Inx5ycO4xr26UV_l0J-330" value="&lt;span style=&quot;color: rgb(0, 0, 0); font-family: helvetica; font-size: 12px; font-style: normal; font-weight: 400; letter-spacing: normal; text-align: center; text-indent: 0px; text-transform: none; word-spacing: 0px; background-color: rgb(248, 249, 250); display: inline; float: none;&quot;&gt;YES&lt;/span&gt;" style="text;whiteSpace=wrap;html=1;" vertex="1" parent="1">
          <mxGeometry x="480" y="650" width="50" height="30" as="geometry" />
        </mxCell>
        <mxCell id="e7Inx5ycO4xr26UV_l0J-335" value="" style="edgeStyle=orthogonalEdgeStyle;rounded=0;orthogonalLoop=1;jettySize=auto;html=1;" edge="1" parent="1" source="e7Inx5ycO4xr26UV_l0J-331" target="e7Inx5ycO4xr26UV_l0J-334">
          <mxGeometry relative="1" as="geometry" />
        </mxCell>
        <mxCell id="e7Inx5ycO4xr26UV_l0J-337" value="" style="edgeStyle=orthogonalEdgeStyle;rounded=0;orthogonalLoop=1;jettySize=auto;html=1;" edge="1" parent="1" source="e7Inx5ycO4xr26UV_l0J-331" target="e7Inx5ycO4xr26UV_l0J-336">
          <mxGeometry relative="1" as="geometry" />
        </mxCell>
        <mxCell id="e7Inx5ycO4xr26UV_l0J-331" value="&lt;font style=&quot;font-size: 12px&quot;&gt;key &amp;gt; student_number[mid]&lt;/font&gt;" style="rhombus;whiteSpace=wrap;html=1;strokeColor=#000000;fillColor=none;gradientColor=none;" vertex="1" parent="1">
          <mxGeometry x="305" y="750" width="190" height="60" as="geometry" />
        </mxCell>
        <mxCell id="e7Inx5ycO4xr26UV_l0J-333" value="&lt;span style=&quot;color: rgb(0, 0, 0); font-family: helvetica; font-size: 12px; font-style: normal; font-weight: 400; letter-spacing: normal; text-align: center; text-indent: 0px; text-transform: none; word-spacing: 0px; background-color: rgb(248, 249, 250); display: inline; float: none;&quot;&gt;YES&lt;/span&gt;" style="text;whiteSpace=wrap;html=1;" vertex="1" parent="1">
          <mxGeometry x="414" y="800" width="50" height="30" as="geometry" />
        </mxCell>
        <mxCell id="e7Inx5ycO4xr26UV_l0J-349" style="edgeStyle=orthogonalEdgeStyle;rounded=0;orthogonalLoop=1;jettySize=auto;html=1;" edge="1" parent="1" source="e7Inx5ycO4xr26UV_l0J-334">
          <mxGeometry relative="1" as="geometry">
            <mxPoint x="400" y="650" as="targetPoint" />
            <Array as="points">
              <mxPoint x="230" y="850" />
              <mxPoint x="230" y="650" />
            </Array>
          </mxGeometry>
        </mxCell>
        <mxCell id="e7Inx5ycO4xr26UV_l0J-334" value="low = mid&lt;br&gt;mid = (low+high)/2" style="rounded=0;whiteSpace=wrap;html=1;strokeColor=#000000;fillColor=none;gradientColor=none;" vertex="1" parent="1">
          <mxGeometry x="340" y="830" width="120" height="40" as="geometry" />
        </mxCell>
        <mxCell id="e7Inx5ycO4xr26UV_l0J-342" style="edgeStyle=orthogonalEdgeStyle;rounded=0;orthogonalLoop=1;jettySize=auto;html=1;" edge="1" parent="1" source="e7Inx5ycO4xr26UV_l0J-336">
          <mxGeometry relative="1" as="geometry">
            <mxPoint x="230" y="850" as="targetPoint" />
            <Array as="points">
              <mxPoint x="580" y="900" />
              <mxPoint x="230" y="900" />
            </Array>
          </mxGeometry>
        </mxCell>
        <mxCell id="e7Inx5ycO4xr26UV_l0J-336" value="high = mid&lt;br&gt;mid = (low+high)/2" style="rounded=0;whiteSpace=wrap;html=1;strokeColor=#000000;fillColor=none;gradientColor=none;" vertex="1" parent="1">
          <mxGeometry x="520" y="760" width="120" height="40" as="geometry" />
        </mxCell>
        <mxCell id="e7Inx5ycO4xr26UV_l0J-338" value="NO" style="text;html=1;strokeColor=none;fillColor=none;align=center;verticalAlign=middle;whiteSpace=wrap;rounded=0;" vertex="1" parent="1">
          <mxGeometry x="480" y="740" width="40" height="20" as="geometry" />
        </mxCell>
        <mxCell id="e7Inx5ycO4xr26UV_l0J-340" value="NO" style="text;html=1;strokeColor=none;fillColor=none;align=center;verticalAlign=middle;whiteSpace=wrap;rounded=0;" vertex="1" parent="1">
          <mxGeometry x="400" y="720" width="40" height="20" as="geometry" />
        </mxCell>
        <mxCell id="e7Inx5ycO4xr26UV_l0J-346" value="" style="edgeStyle=orthogonalEdgeStyle;rounded=0;orthogonalLoop=1;jettySize=auto;html=1;" edge="1" parent="1" source="e7Inx5ycO4xr26UV_l0J-343" target="e7Inx5ycO4xr26UV_l0J-345">
          <mxGeometry relative="1" as="geometry" />
        </mxCell>
        <mxCell id="e7Inx5ycO4xr26UV_l0J-343" value="&lt;font style=&quot;font-size: 17px&quot;&gt;NOT FOUND&lt;/font&gt;" style="shape=document;whiteSpace=wrap;html=1;boundedLbl=1;strokeColor=#000000;fillColor=none;gradientColor=none;" vertex="1" parent="1">
          <mxGeometry x="522.5" y="580" width="160" height="60" as="geometry" />
        </mxCell>
        <mxCell id="e7Inx5ycO4xr26UV_l0J-345" value="end" style="ellipse;whiteSpace=wrap;html=1;strokeColor=#000000;fillColor=none;gradientColor=none;" vertex="1" parent="1">
          <mxGeometry x="740" y="590" width="85" height="40" as="geometry" />
        </mxCell>
        <mxCell id="e7Inx5ycO4xr26UV_l0J-353" value="NO" style="text;html=1;strokeColor=none;fillColor=none;align=center;verticalAlign=middle;whiteSpace=wrap;rounded=0;" vertex="1" parent="1">
          <mxGeometry x="480" y="585" width="40" height="20" as="geometry" />
        </mxCell>
      </root>
    </mxGraphModel>
  </diagram>
</mxfile>
